<svg width="139" height="33" viewBox="0 0 139 33" fill="none" xmlns="http://www.w3.org/2000/svg">
<path d="M97.23 0.509998C97.33 0.609998 97.39 0.719999 97.41 0.84C97.43 0.939999 97.43 1.02 97.41 1.08C97.33 0.999999 97.2 0.97 97.02 0.989999C96.86 0.989999 96.69 1.07 96.51 1.23C96.33 1.39 96.17 1.64 96.03 1.98C95.89 2.32 95.82 2.78 95.82 3.36V28.59C95.82 28.71 95.85 28.8 95.91 28.86C95.99 28.92 96.07 28.98 96.15 29.04C96.23 29.1 96.3 29.16 96.36 29.22C96.44 29.3 96.48 29.41 96.48 29.55V29.82H92.34V29.55C92.34 29.41 92.37 29.3 92.43 29.22C92.51 29.16 92.59 29.1 92.67 29.04C92.75 28.98 92.82 28.92 92.88 28.86C92.96 28.8 93 28.71 93 28.59V6.84C92.48 7.64 92.01 8.52 91.59 9.48C91.17 10.44 90.79 11.42 90.45 12.42C90.13 13.42 89.83 14.43 89.55 15.45C89.29 16.45 89.06 17.41 88.86 18.33C88.88 18.53 88.91 18.83 88.95 19.23C88.99 19.61 89.04 20.04 89.1 20.52C89.16 20.98 89.23 21.46 89.31 21.96C89.41 22.44 89.52 22.88 89.64 23.28C89.78 23.68 89.95 24.01 90.15 24.27C90.35 24.55 90.59 24.7 90.87 24.72C90.87 24.96 90.81 25.17 90.69 25.35C90.59 25.53 90.45 25.68 90.27 25.8C90.09 25.92 89.88 26.01 89.64 26.07C89.42 26.13 89.21 26.16 89.01 26.16C88.25 26.12 87.67 25.74 87.27 25.02C86.87 24.3 86.61 23.39 86.49 22.29C86.39 21.55 86.29 20.73 86.19 19.83C86.11 18.93 86.01 18 85.89 17.04C85.79 16.08 85.65 15.11 85.47 14.13C85.31 13.13 85.11 12.17 84.87 11.25C84.65 10.33 84.38 9.47 84.06 8.67C83.74 7.85 83.37 7.13 82.95 6.51V28.65C82.95 28.91 82.99 29.08 83.07 29.16C83.15 29.26 83.24 29.32 83.34 29.34C83.46 29.38 83.57 29.41 83.67 29.43C83.79 29.45 83.88 29.52 83.94 29.64C83.76 29.76 83.54 29.91 83.28 30.09C83.02 30.29 82.74 30.49 82.44 30.69C82.14 30.91 81.82 31.13 81.48 31.35C81.16 31.59 80.85 31.81 80.55 32.01C80.43 32.09 80.29 32.18 80.13 32.28C79.97 32.4 79.8 32.5 79.62 32.58C79.46 32.66 79.3 32.7 79.14 32.7C78.98 32.7 78.84 32.63 78.72 32.49C78.62 32.39 78.56 32.28 78.54 32.16C78.54 32.06 78.54 31.98 78.54 31.92C78.62 31.98 78.75 32 78.93 31.98C79.11 31.98 79.28 31.9 79.44 31.74C79.62 31.58 79.78 31.33 79.92 30.99C80.06 30.65 80.13 30.19 80.13 29.61V4.26C79.35 4.04 78.58 4.04 77.82 4.26C77.06 4.48 76.42 4.83 75.9 5.31C75.4 5.77 75.07 6.33 74.91 6.99C74.75 7.63 74.88 8.28 75.3 8.94C75.38 9.08 75.51 9.22 75.69 9.36C75.87 9.5 76.07 9.61 76.29 9.69C76.51 9.77 76.74 9.81 76.98 9.81C77.24 9.79 77.49 9.7 77.73 9.54C77.93 10.24 77.88 10.82 77.58 11.28C77.28 11.74 76.86 12.03 76.32 12.15C75.78 12.27 75.19 12.2 74.55 11.94C73.91 11.68 73.36 11.19 72.9 10.47C72.26 9.47 71.96 8.46 72 7.44C72.04 6.4 72.32 5.46 72.84 4.62C73.38 3.76 74.11 3.03 75.03 2.43C75.95 1.83 76.95 1.46 78.03 1.32C79.51 1.12 80.81 1.31 81.93 1.89C83.05 2.45 84 3.24 84.78 4.26C85.58 5.26 86.23 6.4 86.73 7.68C87.23 8.96 87.6 10.21 87.84 11.43C88.08 10.69 88.36 9.92 88.68 9.12C89.02 8.3 89.4 7.5 89.82 6.72C90.26 5.94 90.74 5.2 91.26 4.5C91.78 3.8 92.35 3.17 92.97 2.61C93.15 2.45 93.44 2.22 93.84 1.92C94.26 1.62 94.69 1.34 95.13 1.08C95.59 0.799998 96.01 0.589999 96.39 0.449999C96.79 0.309999 97.07 0.329998 97.23 0.509998ZM102.57 9.9C103.45 9.92 104.22 10.14 104.88 10.56C105.54 10.98 106.08 11.53 106.5 12.21C106.94 12.89 107.27 13.67 107.49 14.55C107.71 15.41 107.81 16.29 107.79 17.19C107.79 18.07 107.67 18.94 107.43 19.8C107.19 20.66 106.84 21.42 106.38 22.08C105.94 22.74 105.38 23.27 104.7 23.67C104.02 24.05 103.23 24.23 102.33 24.21C101.13 24.17 100.13 23.79 99.3302 23.07C98.5502 22.35 97.9602 21.46 97.5602 20.4C97.1802 19.32 97.0002 18.17 97.0202 16.95C97.0402 15.71 97.2502 14.57 97.6502 13.53C98.0702 12.47 98.6902 11.6 99.5102 10.92C100.33 10.22 101.35 9.88 102.57 9.9ZM99.5702 17.07C99.5702 18.07 99.7102 18.92 99.9902 19.62C100.29 20.3 100.64 20.82 101.04 21.18C101.46 21.52 101.91 21.7 102.39 21.72C102.89 21.74 103.34 21.58 103.74 21.24C104.16 20.9 104.51 20.39 104.79 19.71C105.07 19.01 105.21 18.13 105.21 17.07C105.21 16.01 105.07 15.13 104.79 14.43C104.51 13.73 104.16 13.22 103.74 12.9C103.34 12.56 102.89 12.4 102.39 12.42C101.91 12.42 101.46 12.6 101.04 12.96C100.64 13.32 100.29 13.85 99.9902 14.55C99.7102 15.23 99.5702 16.07 99.5702 17.07ZM117.82 23.04C117.82 23.14 117.84 23.22 117.88 23.28C117.94 23.32 118 23.36 118.06 23.4C118.14 23.44 118.2 23.49 118.24 23.55C118.3 23.61 118.33 23.69 118.33 23.79V24H114.91V23.79C114.91 23.59 114.99 23.46 115.15 23.4C115.31 23.34 115.39 23.22 115.39 23.04V19.23L111.34 14.76V23.04C111.34 23.14 111.36 23.22 111.4 23.28C111.46 23.32 111.52 23.36 111.58 23.4C111.66 23.44 111.72 23.49 111.76 23.55C111.82 23.61 111.85 23.69 111.85 23.79V24H108.43V23.79C108.43 23.69 108.45 23.61 108.49 23.55C108.55 23.49 108.61 23.44 108.67 23.4C108.75 23.36 108.81 23.32 108.85 23.28C108.91 23.22 108.94 23.14 108.94 23.04V11.07C108.94 10.99 108.91 10.93 108.85 10.89C108.81 10.83 108.75 10.78 108.67 10.74C108.61 10.68 108.55 10.62 108.49 10.56C108.45 10.5 108.43 10.42 108.43 10.32V10.11H111.85V10.32C111.85 10.42 111.82 10.5 111.76 10.56C111.72 10.62 111.66 10.68 111.58 10.74C111.52 10.78 111.46 10.83 111.4 10.89C111.36 10.93 111.34 10.99 111.34 11.07V11.16L115.39 15.66V11.07C115.39 10.99 115.36 10.93 115.3 10.89C115.26 10.83 115.21 10.78 115.15 10.74C115.09 10.68 115.03 10.62 114.97 10.56C114.93 10.5 114.91 10.42 114.91 10.32V10.11H118.33V10.32C118.33 10.42 118.3 10.5 118.24 10.56C118.2 10.62 118.14 10.68 118.06 10.74C118 10.78 117.94 10.83 117.88 10.89C117.84 10.93 117.82 10.99 117.82 11.07V23.04ZM126.794 21.6C126.874 21.6 126.944 21.58 127.004 21.54C127.064 21.48 127.114 21.42 127.154 21.36C127.214 21.28 127.274 21.22 127.334 21.18C127.414 21.12 127.504 21.09 127.604 21.09H127.814L126.854 24H119.384V23.79C119.384 23.69 119.404 23.61 119.444 23.55C119.504 23.49 119.564 23.44 119.624 23.4C119.704 23.36 119.764 23.32 119.804 23.28C119.864 23.22 119.894 23.14 119.894 23.04V11.07C119.894 10.99 119.864 10.93 119.804 10.89C119.764 10.83 119.704 10.78 119.624 10.74C119.564 10.68 119.504 10.62 119.444 10.56C119.404 10.5 119.384 10.42 119.384 10.32V10.11H126.854L127.814 13.02H127.604C127.504 13.02 127.414 13 127.334 12.96C127.274 12.9 127.214 12.84 127.154 12.78C127.114 12.7 127.064 12.64 127.004 12.6C126.944 12.54 126.874 12.51 126.794 12.51H122.294V15.33H124.454C124.554 15.33 124.614 15.31 124.634 15.27C124.654 15.21 124.664 15.15 124.664 15.09C124.684 15.03 124.694 14.96 124.694 14.88C124.714 14.8 124.774 14.73 124.874 14.67L125.054 14.52L125.504 15.99L126.254 18.27H126.044C125.944 18.27 125.854 18.25 125.774 18.21C125.714 18.15 125.654 18.09 125.594 18.03C125.534 17.95 125.474 17.89 125.414 17.85C125.354 17.79 125.284 17.76 125.204 17.76H122.294V21.6H126.794ZM137.721 10.11L137.691 10.32C137.671 10.48 137.561 10.61 137.361 10.71C137.181 10.79 137.041 10.92 136.941 11.1L134.001 17.07V23.04C134.001 23.14 134.021 23.22 134.061 23.28C134.121 23.32 134.181 23.36 134.241 23.4C134.321 23.44 134.381 23.49 134.421 23.55C134.481 23.61 134.511 23.69 134.511 23.79V24H131.061V23.79C131.061 23.69 131.081 23.61 131.121 23.55C131.181 23.49 131.241 23.44 131.301 23.4C131.381 23.36 131.441 23.32 131.481 23.28C131.541 23.22 131.571 23.14 131.571 23.04V17.13L128.601 11.1C128.501 10.9 128.351 10.77 128.151 10.71C127.971 10.63 127.871 10.5 127.851 10.32L127.821 10.11H131.301L131.331 10.32C131.351 10.48 131.301 10.59 131.181 10.65C131.081 10.71 131.001 10.78 130.941 10.86L132.771 14.58L134.601 10.86C134.541 10.78 134.451 10.71 134.331 10.65C134.231 10.59 134.191 10.48 134.211 10.32L134.241 10.11H137.721Z" fill="white"/>
<path d="M41.25 1.26C42.53 1.38 43.67 1.74 44.67 2.34C45.69 2.92 46.58 3.67 47.34 4.59C48.1 5.51 48.73 6.57 49.23 7.77C49.75 8.97 50.15 10.24 50.43 11.58C50.71 12.9 50.89 14.26 50.97 15.66C51.05 17.06 51.04 18.43 50.94 19.77C50.84 21.07 50.65 22.37 50.37 23.67C50.09 24.95 49.66 26.14 49.08 27.24C48.52 28.36 47.78 29.35 46.86 30.21C45.94 31.09 44.8 31.75 43.44 32.19C42.24 32.59 41 32.73 39.72 32.61C38.46 32.49 37.31 32.14 36.27 31.56C35.25 31 34.43 30.21 33.81 29.19C33.19 28.17 32.93 26.96 33.03 25.56C33.13 24.24 33.54 23.14 34.26 22.26C34.98 21.36 35.84 20.7 36.84 20.28V9.81C36.84 9.55 36.8 9.38 36.72 9.3C36.64 9.2 36.54 9.14 36.42 9.12C36.32 9.08 36.21 9.05 36.09 9.03C35.99 9.01 35.91 8.94 35.85 8.82C36.03 8.7 36.24 8.55 36.48 8.37C36.74 8.17 37.02 7.97 37.32 7.77C37.62 7.55 37.93 7.33 38.25 7.11C38.59 6.87 38.92 6.65 39.24 6.45C39.36 6.39 39.5 6.31 39.66 6.21C39.82 6.09 39.98 5.99 40.14 5.91C40.32 5.83 40.49 5.79 40.65 5.79C40.81 5.77 40.95 5.83 41.07 5.97C41.17 6.07 41.22 6.18 41.22 6.3C41.24 6.4 41.25 6.48 41.25 6.54C41.15 6.48 41.01 6.46 40.83 6.48C40.67 6.48 40.5 6.57 40.32 6.75C40.14 6.91 39.98 7.16 39.84 7.5C39.72 7.84 39.66 8.3 39.66 8.88V19.74C40.38 19.78 41.07 19.96 41.73 20.28C42.49 20.62 43.07 21.09 43.47 21.69C43.89 22.27 44.11 22.85 44.13 23.43C44.15 24.01 43.96 24.53 43.56 24.99C43.18 25.47 42.57 25.76 41.73 25.86C41.83 25.5 41.85 25.13 41.79 24.75C41.73 24.39 41.6 24.06 41.4 23.76C41.22 23.46 40.98 23.21 40.68 23.01C40.38 22.79 40.04 22.65 39.66 22.59V25.2C39.66 25.46 39.7 25.63 39.78 25.71C39.86 25.81 39.95 25.87 40.05 25.89C40.15 25.93 40.26 25.96 40.38 25.98C40.5 26.02 40.59 26.1 40.65 26.22C40.05 26.62 39.45 27.03 38.85 27.45C38.25 27.87 37.65 28.29 37.05 28.71C37.45 29.03 37.91 29.27 38.43 29.43C38.95 29.59 39.46 29.69 39.96 29.73C41.4 29.83 42.6 29.6 43.56 29.04C44.52 28.48 45.3 27.72 45.9 26.76C46.5 25.8 46.94 24.72 47.22 23.52C47.52 22.3 47.72 21.09 47.82 19.89C47.96 18.15 47.93 16.38 47.73 14.58C47.55 12.78 47.18 11.13 46.62 9.63C46.08 8.11 45.36 6.84 44.46 5.82C43.56 4.8 42.48 4.21 41.22 4.05C40.76 3.99 40.27 4.02 39.75 4.14C39.25 4.24 38.78 4.41 38.34 4.65C37.9 4.89 37.52 5.2 37.2 5.58C36.9 5.96 36.73 6.4 36.69 6.9C36.11 6.7 35.7 6.41 35.46 6.03C35.24 5.65 35.16 5.24 35.22 4.8C35.28 4.36 35.47 3.91 35.79 3.45C36.13 2.99 36.56 2.59 37.08 2.25C37.62 1.89 38.24 1.62 38.94 1.44C39.66 1.24 40.43 1.18 41.25 1.26ZM36.84 23.64C36.56 23.92 36.33 24.23 36.15 24.57C35.99 24.93 35.89 25.34 35.85 25.8C35.81 26.18 35.83 26.56 35.91 26.94C36.01 27.34 36.17 27.7 36.39 28.02C36.51 27.84 36.61 27.6 36.69 27.3C36.77 27 36.82 26.63 36.84 26.19V23.64ZM59.6686 21.6C59.7486 21.6 59.8186 21.58 59.8786 21.54C59.9386 21.48 59.9886 21.42 60.0286 21.36C60.0886 21.28 60.1486 21.22 60.2086 21.18C60.2886 21.12 60.3786 21.09 60.4786 21.09H60.6886L59.7286 24H52.2586V23.79C52.2586 23.69 52.2786 23.61 52.3186 23.55C52.3786 23.49 52.4386 23.44 52.4986 23.4C52.5786 23.36 52.6386 23.32 52.6786 23.28C52.7386 23.22 52.7686 23.14 52.7686 23.04V11.07C52.7686 10.99 52.7386 10.93 52.6786 10.89C52.6386 10.83 52.5786 10.78 52.4986 10.74C52.4386 10.68 52.3786 10.62 52.3186 10.56C52.2786 10.5 52.2586 10.42 52.2586 10.32V10.11H59.7286L60.6886 13.02H60.4786C60.3786 13.02 60.2886 13 60.2086 12.96C60.1486 12.9 60.0886 12.84 60.0286 12.78C59.9886 12.7 59.9386 12.64 59.8786 12.6C59.8186 12.54 59.7486 12.51 59.6686 12.51H55.1686V15.33H57.3286C57.4286 15.33 57.4886 15.31 57.5086 15.27C57.5286 15.21 57.5386 15.15 57.5386 15.09C57.5586 15.03 57.5686 14.96 57.5686 14.88C57.5886 14.8 57.6486 14.73 57.7486 14.67L57.9286 14.52L58.3786 15.99L59.1286 18.27H58.9186C58.8186 18.27 58.7286 18.25 58.6486 18.21C58.5886 18.15 58.5286 18.09 58.4686 18.03C58.4086 17.95 58.3486 17.89 58.2886 17.85C58.2286 17.79 58.1586 17.76 58.0786 17.76H55.1686V21.6H59.6686ZM71.6955 10.11V10.32C71.6955 10.52 71.6155 10.65 71.4555 10.71C71.3155 10.75 71.2255 10.86 71.1855 11.04L68.4855 22.95C68.4655 23.07 68.4755 23.16 68.5155 23.22C68.5755 23.28 68.6355 23.33 68.6955 23.37C68.7755 23.41 68.8455 23.46 68.9055 23.52C68.9655 23.58 68.9955 23.67 68.9955 23.79V24H63.8355V23.79C63.8355 23.67 63.8655 23.58 63.9255 23.52C63.9855 23.46 64.0455 23.41 64.1055 23.37C64.1855 23.31 64.2455 23.25 64.2855 23.19C64.3455 23.13 64.3655 23.04 64.3455 22.92L61.6455 11.01C61.6055 10.87 61.5055 10.77 61.3455 10.71C61.2055 10.65 61.1355 10.52 61.1355 10.32V10.11H64.6155V10.32C64.6155 10.44 64.5855 10.53 64.5255 10.59C64.4655 10.65 64.3955 10.71 64.3155 10.77C64.2555 10.81 64.1955 10.86 64.1355 10.92C64.0955 10.98 64.0955 11.07 64.1355 11.19L66.4155 21.3L68.6955 11.16C68.7155 11.04 68.6955 10.95 68.6355 10.89C68.5955 10.83 68.5455 10.78 68.4855 10.74C68.4255 10.7 68.3655 10.65 68.3055 10.59C68.2455 10.53 68.2155 10.44 68.2155 10.32V10.11H71.6955Z" fill="#1ED561"/>
<path d="M28.1344 15.9952H31.3344C31.2368 14.3567 30.8759 12.7446 30.2656 11.2208L27.456 12.8432C27.8144 13.84 28.0496 14.896 28.1344 15.9952ZM22.5616 3.07201C21.0066 2.33137 19.3369 1.86066 17.624 1.68001V4.91361C18.7747 5.06379 19.8977 5.37903 20.9584 5.84961L22.5616 3.07201V3.07201ZM25.9872 9.99521L28.7728 8.38721C27.8228 6.98615 26.6487 5.75098 25.2976 4.73121L23.688 7.51841C24.5656 8.23334 25.3394 9.06694 25.9872 9.99521V9.99521ZM16.0224 29.1136C12.7974 29.1136 9.70442 27.8325 7.42398 25.552C5.14354 23.2716 3.8624 20.1786 3.8624 16.9536C3.8624 10.7808 8.4656 5.69601 14.424 4.91201V1.67841C6.6912 2.47841 0.662399 9.01121 0.662399 16.9536C0.662189 18.971 1.05939 20.9686 1.8313 22.8325C2.60322 24.6963 3.73474 26.3899 5.16124 27.8164C6.58774 29.2429 8.28127 30.3744 10.1451 31.1463C12.009 31.9182 14.0066 32.3154 16.024 32.3152C23.7424 32.3152 30.1152 26.6144 31.2016 19.1952H27.968C26.9152 24.8384 21.9712 29.1136 16.0224 29.1136V29.1136Z" fill="white"/>
</svg>
